<?xml version="1.0" encoding="utf-8"?>
<!-- Generator: Adobe Illustrator 20.1.0, SVG Export Plug-In . SVG Version: 6.00 Build 0)  -->
<svg version="1.1" id="Layer_1" xmlns="http://www.w3.org/2000/svg" xmlns:xlink="http://www.w3.org/1999/xlink" x="0px" y="0px"
	 width="170px" height="74.4169312px" viewBox="0 0 170 74.4169312" enable-background="new 0 0 170 74.4169312"
	 xml:space="preserve">
<g>
	<polygon id="XMLID_3_" fill="#C5E74E" points="8.1566324,47.4385109 16.8553562,47.4385109 16.8553562,30.8099937 
		24.9546318,30.8099937 24.9546318,25.168108 0,25.168108 0,30.8099937 8.1566324,30.8099937 	"/>
	<path id="XMLID_27_" fill="#C5E74E" d="M35.3691635,30.8099937h6.1286507c1.5030975,0,2.5267067,0.3602982,2.5267067,2.0410652
		c0,1.4423141-0.661911,2.0409927-2.404789,2.0409927h-6.2505684V30.8099937z M26.6544933,47.4385109h8.7146702v-6.9042244
		h6.2505684c1.6233368,0,2.2254448,0.9645042,2.2828712,2.64254c0.1219177,2.5806389,0.1219177,3.5438156,0.4825668,4.2616844
		h9.5542488c-0.4805374-0.7178688-1.0205307-1.6810455-1.080616-2.6400948l-0.3610687-4.9232445
		c-0.1195374-1.9198456-1.2021828-3.0608978-2.5236282-3.4239922v-0.0573578
		c2.5236282-0.7210159,3.4847755-2.9410057,3.4847755-5.0425053c0-2.4010143-1.4416847-4.502512-3.0643234-5.4048328
		c-1.2025337-0.5399952-2.7057037-0.7783756-5.2894211-0.7783756H26.6544933V47.4385109z"/>
	<path fill="#C5E74E" d="M53.0101013,47.4385109h9.3028564l0.8975639-2.5786095h9.1833229l0.9023209,2.5786095h9.2981033
		L73.1742477,25.168108H62.4297714L53.0101013,47.4385109z M70.4730148,39.3928833h-5.3389435l2.6397476-7.5019245h0.0594559
		L70.4730148,39.3928833z"/>
	<path id="XMLID_24_" fill="#C5E74E" d="M83.3620071,47.4385109h17.2047424c7.3711243,0,11.3288879-3.361393,11.3288879-11.1659088
		c0-8.1628571-3.9577637-11.1048431-11.4484253-11.1048431H83.3620071V47.4385109z M92.1109543,30.8096428h5.0369797
		c4.0172195,0,5.6354446,1.9795799,5.6354446,5.4629593c0,3.5427628-1.6182251,5.5216446-5.6354446,5.5216446h-5.0369797V30.8096428
		z"/>
	<polygon id="XMLID_14_" fill="#C5E74E" points="114.6074982,47.4385109 138.1915131,47.4385109 138.1915131,41.9756203 
		123.367981,41.9756203 123.367981,38.9751587 137.1702728,38.9751587 137.1702728,33.5723534 123.367981,33.5723534 
		123.367981,30.5688839 138.1915131,30.5688839 138.1915131,25.168108 114.6074982,25.168108 	"/>
	<path id="XMLID_21_" fill="#C5E74E" d="M149.753952,30.8099937h6.1286469c1.5034485,0,2.5294342,0.3602982,2.5294342,2.0410652
		c0,1.4423141-0.6626129,2.0409927-2.4051361,2.0409927h-6.2529449V30.8099937z M141.0385742,47.4385109h8.7153778v-6.9042244
		h6.2529449c1.6188507,0,2.2206879,0.9645042,2.2828674,2.64254c0.1222687,2.5806389,0.1222687,3.5438156,0.4808807,4.2616844
		h9.5562897c-0.4836273-0.7178688-1.0232697-1.6810455-1.0827179-2.6400948l-0.3593292-4.9232445
		c-0.1215668-1.9198456-1.202179-3.0608978-2.526001-3.4239922v-0.0573578
		c2.526001-0.7210159,3.4844208-2.9410057,3.4844208-5.0425053c0-2.4010143-1.4406281-4.502512-3.0615845-5.4048328
		c-1.2021942-0.5399952-2.7057037-0.7783756-5.2890778-0.7783756h-18.454071V47.4385109z"/>
</g>
<g>
	<polygon id="XMLID_19_" fill="#FFFFFF" points="161.7187958,52.7228241 160.2228241,52.7228241 160.2228241,52.1825485 
		163.8650513,52.1825485 163.8650513,52.7228241 162.3615417,52.7228241 162.3615417,57.1034164 161.7187958,57.1034164 	"/>
	<path id="XMLID_51_" fill="#FFFFFF" d="M168.5509644,54.9428825c-0.0355225-0.685833-0.0799408-1.5110016-0.0710602-2.1250687
		h-0.0239258c-0.1680145,0.5758057-0.3722534,1.1898727-0.6188202,1.8688507l-0.870285,2.388073h-0.4815063l-0.7944794-2.3436546
		c-0.2349548-0.6946487-0.4317017-1.3299103-0.5690155-1.913269h-0.0163727
		c-0.0136414,0.6140671-0.0498657,1.4392357-0.0949097,2.1742439l-0.1305237,2.1113586h-0.6044922l0.3408508-4.9208679h0.8114624
		l0.8395081,2.381218c0.2042542,0.6037865,0.3723297,1.1448288,0.495224,1.6564255h0.0218964
		c0.1257019-0.4979553,0.3012695-1.0382271,0.5198517-1.6564255l0.8743439-2.381218h0.8107605l0.306015,4.9208679h-0.6181946
		L168.5509644,54.9428825z"/>
	<g id="XMLID_167_">
		<path id="XMLID_168_" fill="#FFFFFF" d="M166.6406403,67.9952698c-0.0321045-0.1202393-0.1086273-0.1813736-0.2322998-0.1813736
			h-0.517746v4.9318466h0.8716125v-3.6332703c0.1885071-0.2066956,0.3914185-0.375412,0.6174927-0.4997025
			c0.2206268-0.1205902,0.458374-0.183754,0.7179413-0.183754c0.347641,0,0.6038513,0.1024704,0.7759247,0.3080444
			c0.1701202,0.2069778,0.2534943,0.4973297,0.2534943,0.8699341v3.1387482H170v-3.1387482
			c0-0.2773361-0.0341339-0.5338364-0.1072235-0.7647324c-0.0703735-0.2294922-0.1755676-0.4259109-0.3114777-0.5904922
			c-0.1400452-0.1652908-0.3149109-0.2909851-0.5178223-0.3818436c-0.2055817-0.0877838-0.4460602-0.1322021-0.7145081-0.1322021
			c-0.1762085,0-0.3381348,0.0164413-0.4897003,0.0556793c-0.1503296,0.0355301-0.2944183,0.0905075-0.4262695,0.1612244
			c-0.1372986,0.0700226-0.2644043,0.1547241-0.3845673,0.2499924c-0.1209412,0.0973663-0.234314,0.2093582-0.3402252,0.3261642
			L166.6406403,67.9952698z M161.3426208,71.6497421c-0.241806-0.3279114-0.3626862-0.7804031-0.3626862-1.3664932
			c0-0.2920303,0.0307159-0.5529327,0.0914917-0.7852249c0.058136-0.2332764,0.1516418-0.4286423,0.2711945-0.5870743
			c0.1229553-0.1595459,0.2746124-0.2827911,0.461792-0.3678513c0.1830444-0.080925,0.3961792-0.124649,0.6434479-0.124649
			c0.4863434,0,0.8504181,0.1652908,1.0915985,0.4925003c0.2383728,0.3271484,0.3599396,0.7848129,0.3599396,1.3722992
			c0,0.5860901-0.1215668,1.0385818-0.3599396,1.3664932c-0.2411804,0.3272095-0.6052551,0.489769-1.0915985,0.489769
			C161.9553528,72.1395111,161.5858154,71.9769516,161.3426208,71.6497421 M161.4655762,67.9153214
			c-0.2929993,0.1205902-0.5389404,0.2944107-0.7417755,0.5136948c-0.205658,0.2178879-0.3627625,0.4856415-0.4685822,0.8015976
			c-0.1113586,0.3132248-0.1659851,0.6646347-0.1659851,1.0464783c0,0.391777,0.0546265,0.7428436,0.1659851,1.0536194
			c0.1058197,0.3111954,0.2629242,0.5802841,0.4685822,0.7957916c0.2028351,0.2234116,0.4487762,0.3931046,0.7417755,0.5126419
			c0.2909851,0.116188,0.6181946,0.1745911,0.9822845,0.1745911c0.3586121,0,0.6831055-0.058403,0.9726868-0.1745911
			c0.2896423-0.1195374,0.536911-0.2892303,0.7404633-0.5126419c0.2063446-0.2155075,0.3613434-0.4845963,0.4686432-0.7957916
			c0.1106567-0.3107758,0.1652832-0.6618423,0.1652832-1.0536194c0-0.3818436-0.0546265-0.7332535-0.1652832-1.0464783
			c-0.1072998-0.3159561-0.2622986-0.5837097-0.4686432-0.8015976c-0.2035522-0.2192841-0.4508209-0.3931046-0.7404633-0.5136948
			c-0.2895813-0.1205215-0.6140747-0.177597-0.9726868-0.177597
			C162.0837708,67.7377243,161.7565613,67.7947998,161.4655762,67.9153214 M159.1075897,65.9914169
			c-0.0321045-0.0774994-0.0785522-0.1417084-0.1338806-0.2014465c-0.060791-0.0550461-0.1242981-0.100441-0.1987915-0.1335983
			c-0.075119-0.0327377-0.1522827-0.0491714-0.2390747-0.0491714c-0.0853424,0-0.1618652,0.0164337-0.2342529,0.0491714
			c-0.0738068,0.0331573-0.1366119,0.0785522-0.1933441,0.1335983c-0.0553284,0.0597382-0.1010742,0.1239471-0.128418,0.2014465
			c-0.0355377,0.0748444-0.0532227,0.1574554-0.0532227,0.2397842c0,0.0836563,0.0176849,0.1636047,0.0532227,0.2370453
			c0.0273438,0.0747757,0.0730896,0.1382904,0.128418,0.1915894c0.0567322,0.0560303,0.1195374,0.1010742,0.1933441,0.130455
			c0.0723877,0.0344849,0.1489105,0.053299,0.2342529,0.053299c0.086792,0,0.1639557-0.0188141,0.2390747-0.053299
			c0.0744934-0.0293808,0.1380005-0.0744247,0.1987915-0.130455c0.0553284-0.053299,0.1017761-0.1168137,0.1338806-0.1915894
			c0.0362244-0.0734406,0.052597-0.153389,0.052597-0.2370453
			C159.1601868,66.1488724,159.1438141,66.0662613,159.1075897,65.9914169 M158.9457397,67.912941h-3.4092407v-1.6995087h-0.4385681
			c-0.053299,0-0.0997467,0.0126572-0.1345825,0.047142c-0.0327454,0.0314102-0.0553284,0.0710678-0.0648499,0.1188431
			l-0.1994781,1.5178604l-0.8067017,0.1078568v0.3439331c0,0.0672836,0.0156555,0.1140823,0.0518951,0.1472397
			c0.0348358,0.0317535,0.0799408,0.0467911,0.1318512,0.0467911h0.592865v3.017807
			c0,0.4081421,0.1072388,0.7175903,0.3121796,0.9410019c0.2131348,0.2155075,0.5157318,0.3247681,0.9016876,0.3247681
			c0.2247467,0,0.4406128-0.0409927,0.6509399-0.1215668c0.211792-0.0789032,0.3934479-0.1882324,0.5430603-0.3275681
			l-0.2568359-0.4135971c-0.033432-0.052948-0.0744324-0.080925-0.1188354-0.080925
			c-0.0279846,0-0.0587616,0.0099258-0.091568,0.0382614c-0.033432,0.0201416-0.0758209,0.0477676-0.1228943,0.0785446
			c-0.0492401,0.0276337-0.1051941,0.0533066-0.1728516,0.0782013c-0.066925,0.0256042-0.1454773,0.0355377-0.2363434,0.0355377
			c-0.1598358,0-0.2882538-0.0478439-0.3914337-0.1496201c-0.0996704-0.0986938-0.1495361-0.2561493-0.1495361-0.4638214v-2.9570236
			h2.541748v4.2026443h0.8674927V67.912941z M153.0814819,66.0256195c-0.0341339-0.0758209-0.0819702-0.142128-0.1386261-0.2015152
			c-0.0567322-0.0546265-0.1229706-0.0990448-0.1960754-0.1345749c-0.0799408-0.0304337-0.1598206-0.0481262-0.2438965-0.0481262
			c-0.0880737,0-0.1618652,0.0176926-0.2356567,0.0481262c-0.0731049,0.0355301-0.1400299,0.0799484-0.1939697,0.1345749
			c-0.0546265,0.0593872-0.0977173,0.1256943-0.1311493,0.2015152c-0.0321045,0.0761795-0.0484619,0.1564026-0.0484619,0.2400665
			c0,0.0857544,0.0163574,0.16465,0.0484619,0.2343216c0.033432,0.0747757,0.0765228,0.1407318,0.1311493,0.1966934
			c0.0539398,0.0594559,0.1208649,0.1024704,0.1939697,0.1328964c0.0737915,0.035881,0.147583,0.0508499,0.2356567,0.0508499
			c0.0840759,0,0.1639557-0.0149689,0.2438965-0.0508499c0.0731049-0.030426,0.1393433-0.0734406,0.1960754-0.1328964
			c0.0566559-0.0559616,0.1044922-0.1219177,0.1386261-0.1966934c0.0328064-0.0696716,0.0498657-0.1485672,0.0498657-0.2343216
			C153.1313477,66.1820221,153.1142883,66.101799,153.0814819,66.0256195 M152.079422,72.7457428h0.8667755v-4.9318466h-0.8667755
			V72.7457428z M149.79039,65.5743942v2.7330551c-0.1680145-0.1827774-0.3613434-0.3207092-0.5779114-0.4252167
			c-0.2151489-0.1024704-0.4740295-0.1561203-0.7745972-0.1561203c-0.3326721,0-0.6291046,0.0672913-0.8934326,0.2018661
			c-0.2664337,0.1270294-0.4870453,0.3070755-0.6687622,0.5403442c-0.1871796,0.2308273-0.3230896,0.5020142-0.420105,0.8141861
			c-0.0983429,0.3132248-0.1461182,0.6517029-0.1461182,1.0161285c0,0.4094696,0.0409851,0.7708206,0.1317749,1.0840454
			c0.0861053,0.3128052,0.2131348,0.5788803,0.3736572,0.7896347c0.1625519,0.2127838,0.3606567,0.372612,0.5902252,0.4818649
			c0.2280884,0.1066055,0.4863434,0.1595535,0.7697601,0.1595535c0.3511353,0,0.6633148-0.0761719,0.931076-0.230545
			c0.272583-0.1574554,0.5130005-0.3627472,0.7226868-0.6141434l0.0785522,0.5987549
			c0.0328064,0.1219177,0.1099548,0.1779404,0.2349548,0.1779404h0.5150909v-7.1713486H149.79039z M149.79039,71.3672943
			c-0.1789246,0.2414551-0.3715668,0.4221344-0.5895233,0.5539856c-0.2103271,0.1294022-0.4589844,0.1922836-0.7452087,0.1922836
			c-0.1980896,0-0.375-0.0300751-0.5307617-0.1014252c-0.1564026-0.0659637-0.2862244-0.1745224-0.3934631-0.3244858
			c-0.1072235-0.1468887-0.1878052-0.3326721-0.2431335-0.5652466c-0.0560303-0.2267685-0.0812836-0.5003281-0.0812836-0.8237686
			c0-0.609314,0.1195526-1.0731354,0.3675079-1.401741c0.2465668-0.3295288,0.6003571-0.4934845,1.0580292-0.4934845
			c0.2329865,0,0.4440155,0.0433731,0.6339264,0.130806c0.1878815,0.0874329,0.3599548,0.2343216,0.5239105,0.4552841V71.3672943z
			 M141.763504,68.789032c0.030777,0.0460968,0.069046,0.0826111,0.1100311,0.1154175
			c0.0381927,0.0293732,0.0907898,0.0457458,0.1495514,0.0457458c0.0737915,0,0.1516418-0.0276337,0.2267609-0.0798798
			c0.0758209-0.0574265,0.1653595-0.1117096,0.2705688-0.1813736c0.108551-0.0659637,0.2329102-0.1267471,0.3777161-0.1796265
			c0.1420593-0.0536499,0.3244781-0.0802994,0.5382385-0.0802994c0.3183289,0,0.559433,0.0990448,0.7233887,0.2958069
			c0.1652985,0.1959915,0.2507019,0.4842453,0.2507019,0.8657379v0.3846436
			c-0.5614624,0.0153122-1.0362091,0.064209-1.4228668,0.1557007c-0.3866119,0.088829-0.6987762,0.2042465-0.9405823,0.3466568
			c-0.2404175,0.1352768-0.4152832,0.2947617-0.5204926,0.4764862c-0.1079254,0.1789246-0.1605225,0.3650513-0.1605225,0.5611115
			c0,0.2261429,0.0341339,0.4187088,0.1106567,0.5833664c0.0709991,0.1625519,0.1727753,0.2991638,0.2944031,0.4033813
			c0.1277313,0.1089096,0.2739258,0.1925659,0.4439697,0.2438354c0.1646423,0.0533066,0.347702,0.0809326,0.5382996,0.0809326
			c0.1885223,0,0.3613586-0.0181198,0.5150299-0.0535812c0.1516418-0.0328064,0.2991638-0.0786209,0.4357758-0.1417847
			c0.136673-0.0658875,0.2650909-0.1444397,0.3886871-0.2336197c0.1236725-0.0935898,0.2493744-0.200119,0.3798218-0.3220367
			l0.0990448,0.4668961c0.0259552,0.0836563,0.060791,0.1366043,0.1045074,0.1625595
			c0.0478363,0.027977,0.1113434,0.0406342,0.1973877,0.0406342h0.3825378v-3.1551819
			c0-0.2725143-0.03685-0.5273361-0.1113586-0.7595596c-0.0758209-0.230896-0.1850739-0.4235306-0.3305664-0.5870667
			c-0.1461945-0.1622772-0.325882-0.2893066-0.5430756-0.3781357c-0.211731-0.0911407-0.4576569-0.1396866-0.7315826-0.1396866
			c-0.3845673,0-0.7357025,0.0659637-1.0471802,0.1943817c-0.3155212,0.130806-0.6099396,0.3267975-0.8825226,0.5888214
			L141.763504,68.789032z M144.4104614,71.547966c-0.0976562,0.1041565-0.1994171,0.1977463-0.2998657,0.2790222
			c-0.1017761,0.0840073-0.2097015,0.1499634-0.3230896,0.2107544c-0.1093292,0.0580521-0.2301941,0.1017685-0.3572845,0.1345749
			c-0.1242981,0.0303574-0.2663727,0.0481262-0.4180145,0.0481262c-0.1140747,0-0.2192841-0.0150375-0.3190308-0.0457458
			c-0.0996704-0.0280533-0.1857758-0.0710678-0.2568512-0.1322021c-0.0723877-0.0580597-0.1317749-0.1315002-0.1734619-0.230545
			c-0.0423126-0.0911407-0.0635071-0.2032013-0.0635071-0.3347015c0-0.1349258,0.0402832-0.2605515,0.1174316-0.3698807
			c0.0786285-0.1126862,0.208374-0.2066269,0.3846436-0.2875519c0.1755066-0.0812836,0.4070892-0.1475906,0.6864624-0.197113
			c0.2821045-0.050499,0.6209259-0.080925,1.0225677-0.0935898V71.547966z M139.032547,68.0513
			c-0.0116119-0.0816269-0.0361633-0.1475906-0.0730896-0.1813736c-0.0361633-0.035881-0.1024017-0.0560303-0.1939697-0.0560303
			h-0.4999695v4.9318466h0.8756714v-3.1158752c0.0621796-0.1673813,0.128418-0.3155975,0.2056427-0.4487762
			c0.0758209-0.130455,0.1611481-0.2407608,0.2581635-0.3295975c0.0963287-0.0915604,0.2042542-0.1587753,0.3265228-0.2045898
			c0.1222687-0.0467987,0.26091-0.0669403,0.4166718-0.0669403c0.1099548,0,0.208313,0.0102768,0.2944183,0.0300751
			c0.0887604,0.0181198,0.1591187,0.0293808,0.1980896,0.0293808c0.0819702,0,0.1331787-0.0393143,0.1509399-0.1240234
			l0.0621796-0.6454697c-0.0758209-0.0498734-0.1598206-0.0854034-0.2561493-0.1068802
			c-0.0956116-0.025322-0.1940308-0.0369339-0.2985229-0.0369339c-0.3285522,0-0.6079254,0.0966721-0.8326569,0.2841949
			c-0.2288666,0.1919403-0.4159851,0.4552917-0.5730743,0.7954407L139.032547,68.0513z M138.5120697,65.7694778h-5.4633026
			v0.7940445h2.2623749v6.1822205h0.9412842v-6.1822205h2.2596436V65.7694778z M129.1203766,72.7457428h0.8641357v-7.1713486
			h-0.8641357V72.7457428z M124.2780685,68.789032c0.0293732,0.0460968,0.0649109,0.0826111,0.1072311,0.1154175
			c0.0423813,0.0293732,0.0901566,0.0457458,0.1509399,0.0457458c0.0737991,0,0.1496201-0.0276337,0.2234192-0.0798798
			c0.0785446-0.0574265,0.1680069-0.1117096,0.275238-0.1813736c0.1052017-0.0659637,0.2315979-0.1267471,0.3763885-0.1796265
			c0.1441574-0.0536499,0.3210602-0.0802994,0.5376129-0.0802994c0.3176346,0,0.5567093,0.0990448,0.7274551,0.2958069
			c0.1632538,0.1959915,0.2465668,0.4842453,0.2465668,0.8657379v0.3846436
			c-0.5634995,0.0153122-1.0362015,0.064209-1.4228058,0.1557007c-0.3879929,0.088829-0.7001724,0.2042465-0.939949,0.3466568
			c-0.241806,0.1352768-0.4139481,0.2947617-0.5198517,0.4764862c-0.1072235,0.1789246-0.163887,0.3650513-0.163887,0.5611115
			c0,0.2261429,0.0409927,0.4187088,0.1119919,0.5833664c0.0723953,0.1625519,0.1741638,0.2991638,0.2971344,0.4033813
			c0.1263962,0.1089096,0.2711868,0.1925659,0.4412994,0.2438354c0.1694107,0.0533066,0.3483353,0.0809326,0.5396423,0.0809326
			c0.1912384,0,0.3579178-0.0181198,0.5136185-0.0535812c0.1530457-0.0328064,0.2978363-0.0786209,0.4358521-0.1417847
			c0.1380005-0.0658875,0.2657242-0.1444397,0.3907166-0.2336197c0.1229706-0.0935898,0.2492981-0.200119,0.3791199-0.3220367
			l0.0970154,0.4668961c0.0252533,0.0836563,0.0621109,0.1366043,0.1092606,0.1625595
			c0.0430145,0.027977,0.1086273,0.0406342,0.1933289,0.0406342h0.3845749v-3.1551819
			c0-0.2725143-0.0389557-0.5273361-0.1113586-0.7595596c-0.0758209-0.230896-0.1878815-0.4235306-0.333992-0.5870667
			c-0.1461945-0.1622772-0.3251953-0.2893066-0.5383224-0.3781357c-0.2151566-0.0911407-0.4596939-0.1396866-0.7356339-0.1396866
			c-0.3845749,0-0.7302551,0.0659637-1.0478821,0.1943817c-0.3114777,0.130806-0.6086121,0.3267975-0.8825302,0.5888214
			L124.2780685,68.789032z M126.9229202,71.547966c-0.0949173,0.1041565-0.1973953,0.1977463-0.2991638,0.2790222
			c-0.1045074,0.0840073-0.2117386,0.1499634-0.3223953,0.2107544c-0.1120529,0.0580521-0.2315903,0.1017685-0.3572845,0.1345749
			c-0.125,0.0303574-0.2690887,0.0481262-0.4187088,0.0481262c-0.1140823,0-0.2206116-0.0150375-0.3190308-0.0457458
			c-0.1017685-0.0280533-0.1885071-0.0710678-0.258873-0.1322021c-0.0737915-0.0580597-0.1331787-0.1315002-0.1714401-0.230545
			c-0.0444183-0.0911407-0.0662384-0.2032013-0.0662384-0.3347015c0-0.1349258,0.0402832-0.2605515,0.1208649-0.3698807
			c0.0785522-0.1126862,0.2104034-0.2066269,0.3825455-0.2875519c0.1789932-0.0812836,0.408493-0.1475906,0.6885605-0.197113
			c0.2807007-0.050499,0.6209183-0.080925,1.0211639-0.0935898V71.547966z M123.2595673,68.3784409
			c-0.2021484-0.2028427-0.4399033-0.3616943-0.7015076-0.4733353c-0.2670593-0.111702-0.5737762-0.1673813-0.9187546-0.1673813
			c-0.372963,0-0.7049332,0.0621872-0.9890518,0.1902542c-0.2903595,0.1233215-0.5300674,0.3032913-0.7282257,0.5276871
			c-0.1966934,0.2271194-0.3442154,0.4945297-0.4487839,0.8077545c-0.1024017,0.3107758-0.1522751,0.65065-0.1522751,1.0136719
			c0,0.403038,0.0532303,0.7633362,0.1659851,1.0778885c0.1092529,0.3149033,0.2636337,0.5788879,0.4555664,0.7995682
			c0.1994858,0.2155075,0.4262619,0.3800964,0.6899567,0.491806c0.2636337,0.1120529,0.55056,0.1673813,0.8572769,0.1673813
			c0.1823578,0,0.3572235-0.0102844,0.5266342-0.0406418c0.1748657-0.0273514,0.3360977-0.0755386,0.497261-0.1394043
			c0.1564713-0.0631638,0.3046875-0.1420593,0.4398956-0.2360001c0.1352768-0.0935898,0.2595749-0.2076035,0.3647766-0.341835
			l-0.2431412-0.3145523c-0.0403595-0.0563812-0.094986-0.083725-0.1646576-0.083725
			c-0.058754,0-0.1208649,0.0222397-0.1775894,0.0730896c-0.0614853,0.0509262-0.1366119,0.1069489-0.225441,0.1701126
			c-0.0894623,0.0607834-0.2042465,0.1168137-0.3374252,0.1649399c-0.1373138,0.0560226-0.3094482,0.0785522-0.5218811,0.0785522
			c-0.2199173,0-0.4187012-0.0406418-0.597702-0.1242981c-0.177597-0.0836563-0.3265152-0.2056427-0.453537-0.3579254
			c-0.122963-0.1595459-0.2178879-0.3569412-0.2889557-0.5860825c-0.0662308-0.2312469-0.1017685-0.4983063-0.1017685-0.7988739
			c0-0.2831421,0.0328064-0.5416718,0.0942917-0.7711639c0.0655365-0.2326508,0.1598282-0.4276581,0.2827911-0.5912704
			c0.1256256-0.1611557,0.2800751-0.286499,0.4671783-0.3715591c0.183754-0.0847092,0.397583-0.1291199,0.6400909-0.1291199
			c0.1830521,0,0.3394547,0.0188141,0.4624252,0.0594559c0.1263885,0.0419617,0.2281647,0.0887604,0.3155975,0.1366043
			c0.0860367,0.0460968,0.1591339,0.0942917,0.2158585,0.1335297c0.0600815,0.0406418,0.1140823,0.0621796,0.1611557,0.0621796
			c0.0471497,0,0.0826797-0.0116043,0.107933-0.0317535c0.0266495-0.0177689,0.0491714-0.047142,0.0785522-0.0812759
			L123.2595673,68.3784409z M118.311348,66.0256195c-0.0355377-0.0758209-0.0833054-0.142128-0.1352081-0.2015152
			c-0.0594559-0.0546265-0.1270981-0.0990448-0.2015228-0.1345749c-0.0737915-0.0304337-0.1570969-0.0481262-0.2439041-0.0481262
			c-0.0805817,0-0.1598282,0.0176926-0.2342529,0.0481262c-0.0723953,0.0355301-0.1359787,0.0799484-0.1919327,0.1345749
			c-0.053299,0.0593872-0.0984192,0.1256943-0.1305237,0.2015152c-0.0327377,0.0761795-0.0491714,0.1564026-0.0491714,0.2400665
			c0,0.0857544,0.0164337,0.16465,0.0491714,0.2343216c0.0321045,0.0747757,0.0772247,0.1407318,0.1305237,0.1966934
			c0.055954,0.0594559,0.1195374,0.1024704,0.1919327,0.1328964c0.0744247,0.035881,0.1536713,0.0508499,0.2342529,0.0508499
			c0.0868073,0,0.1701126-0.0149689,0.2439041-0.0508499c0.0744247-0.030426,0.142067-0.0734406,0.2015228-0.1328964
			c0.0519028-0.0559616,0.0996704-0.1219177,0.1352081-0.1966934c0.0335007-0.0696716,0.0519028-0.1485672,0.0519028-0.2343216
			C118.3632507,66.1820221,118.3448486,66.101799,118.311348,66.0256195 M117.3099823,72.7457428h0.867485v-4.9318466h-0.867485
			V72.7457428z M114.481308,68.0513c-0.0163651-0.0816269-0.0375595-0.1475906-0.075119-0.1813736
			c-0.0334396-0.035881-0.0990448-0.0560303-0.1953659-0.0560303h-0.495224v4.9318466h0.8709106v-3.1158752
			c0.064209-0.1673813,0.130455-0.3155975,0.2069778-0.4487762c0.075119-0.130455,0.1625519-0.2407608,0.258873-0.3295975
			c0.0935898-0.0915604,0.2022171-0.1587753,0.3251877-0.2045898c0.1235962-0.0467987,0.2615967-0.0669403,0.4179993-0.0669403
			c0.1106567,0,0.2090759,0.0102768,0.2944107,0.0300751c0.0888367,0.0181198,0.1550751,0.0293808,0.2008209,0.0293808
			c0.0772171,0,0.1263962-0.0393143,0.1434631-0.1240234l0.0676346-0.6454697
			c-0.0744247-0.0498734-0.1605301-0.0854034-0.2568436-0.1068802c-0.0970154-0.025322-0.1960602-0.0369339-0.3012619-0.0369339
			c-0.3258209,0-0.6044846,0.0966721-0.8326492,0.2841949c-0.2260742,0.1919403-0.4194107,0.4552917-0.573082,0.7954407
			L114.481308,68.0513z M112.3904419,72.7051086c0.211731-0.0789032,0.3900299-0.1882324,0.5416718-0.3275681l-0.2513885-0.4135971
			c-0.0409927-0.052948-0.0785522-0.080925-0.1263962-0.080925c-0.0252533,0-0.0532303,0.0099258-0.0887604,0.0382614
			c-0.0328064,0.0201416-0.0751266,0.0477676-0.1215668,0.0785446c-0.0519714,0.0276337-0.1086349,0.0533066-0.178299,0.0782013
			c-0.0621872,0.0256042-0.1420593,0.0355377-0.2315903,0.0355377c-0.1605377,0-0.2902832-0.0478439-0.3900299-0.1496201
			c-0.1010742-0.0986938-0.1502533-0.2561493-0.1502533-0.4638214v-2.9570236h1.4269333V67.912941h-1.4269333v-1.6995087h-0.4392624
			c-0.0553284,0-0.099678,0.0126572-0.1352081,0.047142c-0.0328064,0.0314102-0.0546341,0.0710678-0.0628891,0.1188431
			l-0.2021484,1.5219116l-0.8080978,0.1038055v0.3439331c0,0.0672836,0.0190964,0.1140823,0.0539322,0.1472397
			c0.0355301,0.0317535,0.0806427,0.0467911,0.1325455,0.0467911h0.5949707v3.017807
			c0,0.4081421,0.1031036,0.7175903,0.3114777,0.9410019c0.2111053,0.2155075,0.5075378,0.3274994,0.8989639,0.3274994
			C111.9627914,72.8294067,112.1759109,72.7856827,112.3904419,72.7051086 M109.2339249,68.3784409
			c-0.2029114-0.2028427-0.4398956-0.3616943-0.7022018-0.4733353c-0.2636948-0.111702-0.5690155-0.1673813-0.9160309-0.1673813
			c-0.3749847,0-0.7049255,0.0621872-0.9918518,0.1902542c-0.28685,0.1233215-0.5300598,0.3032913-0.7281494,0.5276871
			c-0.1953659,0.2271194-0.3449783,0.4945297-0.448082,0.8077545c-0.100441,0.3107758-0.1530457,0.65065-0.1530457,1.0136719
			c0,0.403038,0.0560303,0.7633362,0.1680832,1.0778885c0.1106567,0.3149033,0.2602005,0.5788879,0.4569626,0.7995682
			c0.1939697,0.2155075,0.4228363,0.3800964,0.6891937,0.491806c0.2637024,0.1120529,0.5533524,0.1704559,0.859375,0.1704559
			c0.177597,0,0.3524628-0.0133591,0.5259323-0.0437164c0.1708145-0.0273514,0.3367996-0.0755386,0.4932022-0.1394043
			c0.1570969-0.0631638,0.3053207-0.1420593,0.4412918-0.2360001c0.1379395-0.0935898,0.2595062-0.2076035,0.3640823-0.341835
			l-0.2411804-0.3145523c-0.0409927-0.0563812-0.0969467-0.083725-0.1673126-0.083725
			c-0.0587616,0-0.1182098,0.0222397-0.1762695,0.0730896c-0.0600815,0.0509262-0.13591,0.1069489-0.2247391,0.1701126
			c-0.0880661,0.0607834-0.2035522,0.1168137-0.3381271,0.1649399c-0.1366043,0.0560226-0.3093796,0.0785522-0.5211792,0.0785522
			c-0.2213135,0-0.4207306-0.0406418-0.5949707-0.1242981c-0.177597-0.0836563-0.3285446-0.2056427-0.4528427-0.3579254
			c-0.1277237-0.1595459-0.2240372-0.3569412-0.295105-0.5860825c-0.0607834-0.2312469-0.1010742-0.4983063-0.1010742-0.7988739
			c0-0.2831421,0.0327377-0.5416718,0.0990448-0.7711639c0.0621109-0.2326508,0.1577988-0.4276581,0.2793732-0.5912704
			c0.128418-0.1611557,0.281395-0.286499,0.4671783-0.3715591c0.1844482-0.0847092,0.3968811-0.1291199,0.6407852-0.1291199
			c0.1823502,0,0.3374252,0.0188141,0.4631195,0.0594559c0.1242981,0.0419617,0.2281036,0.0887604,0.3155365,0.1366043
			c0.0847015,0.0460968,0.1577988,0.0942917,0.2158585,0.1335297c0.0567245,0.0406418,0.1120529,0.0621796,0.1619263,0.0621796
			c0.0444183,0,0.0805817-0.0116043,0.105896-0.0317535c0.0259552-0.0177689,0.0519028-0.047142,0.0771561-0.0812759
			L109.2339249,68.3784409z M104.1907196,71.7413025c-0.0382538-0.0563812-0.0935822-0.083725-0.1666794-0.083725
			c-0.0553284,0-0.1215668,0.0222397-0.194664,0.0730896c-0.0785522,0.0509262-0.1728363,0.1069489-0.28685,0.1650085
			c-0.1154861,0.058403-0.2500687,0.1140137-0.4057693,0.1649399c-0.1577988,0.0478439-0.3456802,0.0737915-0.5635681,0.0737915
			c-0.2315216,0-0.4453506-0.0386124-0.6338577-0.1144333c-0.1885834-0.0761719-0.3491135-0.1929855-0.4870453-0.3453293
			c-0.1345825-0.1543732-0.2445374-0.34729-0.3183289-0.5772095c-0.0744247-0.2298431-0.1209412-0.5034103-0.1270218-0.8141861
			h3.2944412c0.0833817,0,0.13871-0.0218964,0.1639633-0.0672913c0.0300751-0.0457458,0.0450439-0.1373062,0.0450439-0.2739105
			c0-0.3514862-0.0519028-0.6646423-0.1536713-0.9358292c-0.1052017-0.2753067-0.2492981-0.5048065-0.4310226-0.6912842
			c-0.1830521-0.1864853-0.4043655-0.3281937-0.6550522-0.4275894c-0.2499924-0.1004486-0.5225754-0.1496201-0.817688-0.1496201
			c-0.3586197,0-0.6810074,0.0598068-0.9624023,0.1902542c-0.2869263,0.1181412-0.5321579,0.2927322-0.7282257,0.5126495
			c-0.1994171,0.2178802-0.3497314,0.4792099-0.4576645,0.7773209c-0.1031036,0.2978363-0.1557007,0.6202927-0.1557007,0.9638748
			c0,0.4259109,0.0580521,0.8025818,0.1741638,1.1297913c0.1182175,0.3281937,0.2821045,0.6017609,0.4890747,0.8227921
			c0.2104034,0.2229919,0.4597626,0.3927536,0.7466202,0.5095673c0.2862244,0.1144333,0.5983963,0.1728363,0.9433823,0.1728363
			c0.1761932,0,0.3565216-0.0157394,0.5375443-0.0458145c0.1823502-0.033432,0.3606491-0.0765228,0.5293655-0.1396866
			c0.1694031-0.0607834,0.3292389-0.139679,0.478157-0.2336197c0.1489182-0.0986938,0.2793732-0.2076035,0.3859634-0.341835
			L104.1907196,71.7413025z M101.0349121,69.7415771c0.0594559-0.4273071,0.2082977-0.7620087,0.4501038-1.0045166
			c0.2425079-0.2407532,0.5704269-0.3650513,0.9857025-0.3650513c0.1994858,0,0.3763885,0.039238,0.5321579,0.1014252
			c0.1564026,0.069664,0.2875519,0.1622086,0.3975143,0.2851715c0.1086273,0.1205902,0.1906052,0.2639847,0.247963,0.4326935
			c0.0546265,0.1660538,0.0847015,0.3525391,0.0847015,0.5502777H101.0349121z M98.1618881,72.7457428h0.8654633v-7.1713486
			h-0.8654633V72.7457428z M93.7033768,71.9769516v-2.381218h2.7166138v-0.7408066h-2.7166138v-2.3128815h3.3539734v-0.7725677
			H92.756012v6.976265h4.3013382l0.0040588-0.7687912H93.7033768z M88.8439941,67.8138962
			c-0.0560303,0-0.1099625,0.0201492-0.1571045,0.0542831c-0.0464478,0.0331497-0.0806503,0.0728149-0.0997467,0.1270905
			l-1.2807999,3.1021652c-0.0519028,0.1352768-0.1017761,0.2814713-0.1440964,0.4327698
			c-0.0375595-0.1512985-0.0840073-0.2933655-0.1318512-0.4266129l-1.3196945-3.1083221
			c-0.0177689-0.0454636-0.0484772-0.08638-0.092186-0.1253433c-0.0416946-0.035881-0.1045761-0.0560303-0.1769714-0.0560303
			h-0.7527008l2.0382614,4.647377l-0.9009933,1.955658h0.6435165c0.0880661,0,0.1598282-0.0198669,0.2014465-0.0584106
			c0.0437241-0.0379105,0.0792542-0.08918,0.1106644-0.1550674l2.7501144-6.3895569H88.8439941z M83.004364,72.7457428h0.868187
			v-7.1713486h-0.868187V72.7457428z M81.6887283,66.0256195c-0.0348358-0.0758209-0.0785522-0.142128-0.13591-0.2015152
			c-0.0553284-0.0546265-0.1243668-0.0990448-0.2008896-0.1345749c-0.0744247-0.0304337-0.1557007-0.0481262-0.2369766-0.0481262
			c-0.0861053,0-0.1646576,0.0176926-0.2404861,0.0481262c-0.0709915,0.0355301-0.1373062,0.0799484-0.1905365,0.1345749
			c-0.0567245,0.0593872-0.100441,0.1256943-0.1318436,0.2015152c-0.0321121,0.0761795-0.0464478,0.1564026-0.0464478,0.2400665
			c0,0.0857544,0.0143356,0.16465,0.0464478,0.2343216c0.0314026,0.0747757,0.075119,0.1407318,0.1318436,0.1966934
			c0.0532303,0.0594559,0.119545,0.1024704,0.1905365,0.1328964c0.0758286,0.035881,0.1543808,0.0508499,0.2404861,0.0508499
			c0.0812759,0,0.1625519-0.0149689,0.2369766-0.0508499c0.0765228-0.030426,0.1455612-0.0734406,0.2008896-0.1328964
			c0.0573578-0.0559616,0.1010742-0.1219177,0.13591-0.1966934c0.0375595-0.0696716,0.0498734-0.1485672,0.0498734-0.2343216
			C81.7386017,66.1820221,81.7262878,66.101799,81.6887283,66.0256195 M80.6859589,72.7457428h0.8702164v-4.9318466h-0.8702164
			V72.7457428z M73.5013199,72.7457428v-3.6753082c0.1509476-0.195015,0.3190308-0.3548431,0.5013809-0.4703293
			c0.1803207-0.1137314,0.3791122-0.1710892,0.5929413-0.1710892c0.3046265,0,0.53965,0.0990448,0.6967468,0.2916794
			c0.158432,0.1939621,0.2397156,0.4883728,0.2397156,0.8862991v3.1387482h0.8709793v-3.1387482
			c0-0.1950073,0.0300064-0.3651199,0.0880661-0.51474c0.053299-0.1454926,0.1318512-0.2687378,0.2274704-0.3654022
			c0.0997391-0.0986938,0.213829-0.172142,0.3402176-0.2230606c0.1317825-0.0481262,0.2643356-0.0747757,0.4070969-0.0747757
			c0.3183289,0,0.5607681,0.0990448,0.7295532,0.30056c0.169342,0.1964111,0.2527161,0.4908218,0.2527161,0.8774185v3.1387482
			h0.8722458v-3.1387482c0-0.2991638-0.0348358-0.5655899-0.1119843-0.7947388
			c-0.0744934-0.2322922-0.183754-0.4276581-0.3230896-0.5871353c-0.1420593-0.1574554-0.3121719-0.2820969-0.5171204-0.3630295
			c-0.2028503-0.0823288-0.4337463-0.1243668-0.6953506-0.1243668c-0.1625519,0-0.319725,0.0164413-0.4768295,0.0570755
			c-0.1564026,0.0392456-0.3066483,0.102478-0.4460526,0.1864853c-0.1420593,0.08638-0.2670593,0.1901855-0.378418,0.3207016
			c-0.1119843,0.1280746-0.2048721,0.2817535-0.2732086,0.4644547c-0.0935898-0.3145523-0.2418137-0.566925-0.4473877-0.7547989
			c-0.2076721-0.1827087-0.4748001-0.2739182-0.8060684-0.2739182c-0.2998657,0-0.56147,0.0714188-0.786911,0.2120819
			c-0.2274704,0.1445084-0.431015,0.3295898-0.6133652,0.5523071l-0.0663147-0.5068436
			c-0.027977-0.1202393-0.1044998-0.1813736-0.2267685-0.1813736h-0.5232086v4.9318466H73.5013199z M67.8215256,68.789032
			c0.027977,0.0460968,0.0607834,0.0826111,0.1044998,0.1154175c0.0430145,0.0293732,0.0928879,0.0457458,0.1489182,0.0457458
			c0.0758209,0,0.1502457-0.0276337,0.2281647-0.0798798c0.0764542-0.0574265,0.166687-0.1117096,0.2718201-0.1813736
			c0.1051941-0.0659637,0.230896-0.1267471,0.3763809-0.1796265c0.1434631-0.0536499,0.3230896-0.0802994,0.5362167-0.0802994
			c0.3197327,0,0.5621719,0.0990448,0.728157,0.2958069c0.1626282,0.1959915,0.2486572,0.4842453,0.2486572,0.8657379v0.3846436
			c-0.5628662,0.0153122-1.0375977,0.064209-1.4228668,0.1557007c-0.3865967,0.088829-0.7001038,0.2042465-0.9405823,0.3466568
			c-0.2404099,0.1352768-0.4152756,0.2947617-0.5204773,0.4764862c-0.1065979,0.1789246-0.1626282,0.3650513-0.1626282,0.5611115
			c0,0.2261429,0.0382614,0.4187088,0.1113586,0.5833664c0.0717621,0.1625519,0.1708069,0.2991638,0.2937088,0.4061127
			c0.1277924,0.1061783,0.2746124,0.1898346,0.4474487,0.2411041c0.1652908,0.0533066,0.344986,0.0836639,0.5355225,0.0836639
			c0.1892014,0,0.3620453-0.0208511,0.5164185-0.0563126c0.1536713-0.0328064,0.2978363-0.0786209,0.4351425-0.1417847
			c0.1331787-0.0658875,0.2650299-0.1444397,0.3900299-0.2336197c0.122963-0.0935898,0.247963-0.200119,0.3777161-0.3220367
			l0.0984116,0.4668961c0.0259476,0.0836563,0.0621109,0.1366043,0.1085587,0.1625595
			c0.0444183,0.027977,0.1086273,0.0406342,0.1940308,0.0406342h0.3831787v-3.1551819
			c0-0.2725143-0.0382614-0.5273361-0.1085587-0.7595596c-0.0792542-0.230896-0.1858521-0.4235306-0.3354034-0.5870667
			c-0.1441574-0.1622772-0.3265152-0.2893066-0.5410385-0.3781357c-0.2124329-0.0911407-0.4562683-0.1396866-0.7322769-0.1396866
			c-0.3831711,0-0.7343063,0.0659637-1.0478134,0.1943817c-0.3149033,0.130806-0.6086121,0.3267975-0.8832245,0.5888214
			L67.8215256,68.789032z M70.4643402,71.547966c-0.0990448,0.1041565-0.1973877,0.1977463-0.30056,0.2790222
			c-0.1031036,0.0840073-0.2104034,0.1499634-0.3223877,0.2107544c-0.1126862,0.0580521-0.2315979,0.1017685-0.3586197,0.1345749
			c-0.1256943,0.0303574-0.2637024,0.0481262-0.4180756,0.0481262c-0.1119843,0-0.2185898-0.0150375-0.3196564-0.0457458
			c-0.0990524-0.0280533-0.1830597-0.0710678-0.2588806-0.1322021c-0.069664-0.0580597-0.1291199-0.1315002-0.1694107-0.230545
			c-0.0444183-0.0911407-0.0628128-0.2032013-0.0628128-0.3347015c0-0.1349258,0.0375595-0.2605515,0.1161118-0.3698807
			c0.0819778-0.1126862,0.2083054-0.2066269,0.3845749-0.2875519c0.1782913-0.0812836,0.4084854-0.1475906,0.6878586-0.197113
			c0.281395-0.050499,0.6216202-0.080925,1.0218582-0.0935898V71.547966z M67.4772415,66.5420456v-0.7725677H63.178627v6.976265
			h0.943306V69.745636h2.8702927v-0.7660675H64.121933v-2.4375229H67.4772415z M58.440815,72.7457428v-4.2026443h1.3913918
			V67.912941h-1.4214706v-0.4518585c0-0.2131271,0.0204926-0.389328,0.0696678-0.5338364
			c0.0491714-0.1403885,0.1147842-0.2571259,0.201519-0.3435822c0.0887604-0.0898132,0.1933327-0.1495514,0.3149033-0.1912384
			c0.1222649-0.0382614,0.2561455-0.0546265,0.4057617-0.0546265c0.1324806,0,0.2411118-0.0051804,0.3196602-0.014061
			c0.0778503-0.0074844,0.1222687-0.0467911,0.1297531-0.1284256l0.0198669-0.4292603
			c-0.1864815-0.0676422-0.390728-0.1017761-0.6086845-0.1017761c-0.2581749,0-0.4945259,0.0406418-0.7028313,0.1188431
			c-0.2097015,0.0816269-0.3852692,0.1939621-0.5334892,0.345253c-0.1482162,0.1496201-0.260273,0.3360977-0.3415527,0.5543365
			c-0.0758209,0.2206802-0.1168098,0.4692764-0.1168098,0.7507477v0.4794846h-0.7800522v0.3538666
			c0,0.0645599,0.021122,0.1143646,0.0648384,0.1495438c0.0423889,0.0355377,0.0997467,0.0621872,0.1694145,0.0758286
			l0.5457993,0.0625305v4.1910324H58.440815z M52.8087921,71.6497421c-0.2438393-0.3279114-0.3620491-0.7804031-0.3620491-1.3664932
			c0-0.2920303,0.0273514-0.5529327,0.0881348-0.7852249c0.0600853-0.2332764,0.1530457-0.4286423,0.2739143-0.5870743
			c0.1209373-0.1595459,0.272583-0.2827911,0.4562645-0.3678513c0.183754-0.080925,0.4003105-0.124649,0.646244-0.124649
			c0.4876747,0,0.84972,0.1652908,1.0902023,0.4925003c0.240406,0.3271484,0.3599472,0.7848129,0.3599472,1.3722992
			c0,0.5860901-0.1195412,1.0385818-0.3599472,1.3664932c-0.2404823,0.3272095-0.6025276,0.489769-1.0902023,0.489769
			C53.4167023,72.1395111,53.0492706,71.9769516,52.8087921,71.6497421 M52.9297295,67.9153214
			c-0.28965,0.1205902-0.5403442,0.2944107-0.7418594,0.5136948c-0.206974,0.2178879-0.3640785,0.4856415-0.4706078,0.8015976
			c-0.1079292,0.3132248-0.1632576,0.6646347-0.1632576,1.0464783c0,0.391777,0.0553284,0.7428436,0.1632576,1.0536194
			c0.1065292,0.3111954,0.2636337,0.5802841,0.4706078,0.7957916c0.2015152,0.2234116,0.4522095,0.3931046,0.7418594,0.5126419
			c0.2895813,0.116188,0.6160965,0.1776657,0.9815712,0.1776657c0.3579216,0,0.6837349-0.0614777,0.9726906-0.1776657
			c0.28825-0.1195374,0.5355148-0.2892303,0.7390633-0.5126419c0.206974-0.2155075,0.3634453-0.4845963,0.4706764-0.7957916
			c0.1079254-0.3107758,0.1639557-0.6618423,0.1639557-1.0536194c0-0.3818436-0.0560303-0.7332535-0.1639557-1.0464783
			c-0.1072311-0.3159561-0.2637024-0.5837097-0.4706764-0.8015976c-0.2035484-0.2192841-0.4508133-0.3931046-0.7390633-0.5136948
			c-0.2889557-0.1205215-0.614769-0.177597-0.9726906-0.177597C53.545826,67.7377243,53.2193108,67.7947998,52.9297295,67.9153214
			 M48.1891174,68.3125534c-0.187809-0.1789932-0.41325-0.3200073-0.6680679-0.4211578
			c-0.2602043-0.1017685-0.5525818-0.1536713-0.873642-0.1536713c-0.2834969,0-0.5307617,0.0393143-0.7486458,0.1168137
			c-0.217186,0.0772247-0.4003105,0.1813736-0.5498581,0.3135757c-0.1496162,0.1328278-0.2636986,0.2848206-0.3429489,0.4562607
			c-0.0758247,0.1762695-0.1147156,0.3551941-0.1147156,0.5437012c0,0.2104034,0.0361633,0.3934555,0.1099586,0.5390167
			c0.0737915,0.1488495,0.170742,0.2728653,0.2902794,0.3715591c0.1195412,0.1017761,0.2568474,0.1868286,0.4119225,0.2513962
			c0.1523438,0.0649109,0.3121719,0.1266708,0.471302,0.1775894c0.1605301,0.0535812,0.3176346,0.1017761,0.4727058,0.1496201
			c0.1543732,0.0443497,0.2916794,0.1017761,0.4105225,0.1659851c0.1216354,0.0658951,0.2165565,0.1382904,0.2916794,0.2322235
			c0.0710678,0.0850601,0.1079292,0.1980972,0.1079292,0.3323212c0,0.1123352-0.0177689,0.2162094-0.0607834,0.3128738
			c-0.0395927,0.0987015-0.1024742,0.1847305-0.1864815,0.2561493c-0.0840073,0.0758209-0.1912346,0.1389847-0.3156013,0.177597
			c-0.1263275,0.0426636-0.2759438,0.0709991-0.4453545,0.0709991c-0.196064,0-0.3640785-0.0283356-0.4966278-0.0709991
			c-0.1317787-0.0458145-0.2438354-0.0966644-0.3408546-0.149971c-0.0887604-0.0556717-0.1687126-0.1065292-0.2315254-0.1523438
			c-0.0669403-0.0426636-0.1277237-0.0682678-0.1851501-0.0682678c-0.0566559,0-0.1031036,0.0125885-0.1386337,0.0355377
			c-0.0341339,0.0228729-0.0689697,0.055954-0.0921936,0.0963135l-0.2049446,0.3323212
			c0.1953621,0.175148,0.431015,0.3196564,0.7117844,0.431015c0.2779732,0.1119843,0.5922432,0.1703949,0.9351273,0.1703949
			c0.2998657,0,0.5683212-0.0457458,0.7992172-0.1273804c0.2287979-0.0758209,0.4234619-0.1902542,0.585392-0.3319702
			c0.1571007-0.139679,0.2766418-0.3070679,0.3579178-0.4997025c0.0805817-0.1929855,0.1229706-0.4050674,0.1229706-0.6335144
			c0-0.1964111-0.0342064-0.3654709-0.1086311-0.5071869c-0.0751228-0.1421356-0.1680107-0.261322-0.2923775-0.3576431
			c-0.1174431-0.097641-0.2540512-0.1775894-0.407795-0.2424316c-0.1522751-0.0683441-0.3087463-0.1267471-0.4706039-0.1810226
			c-0.159832-0.0522537-0.3149033-0.1004486-0.4679489-0.1512985c-0.1536751-0.0458145-0.2909813-0.0987701-0.4125519-0.161232
			c-0.1195374-0.0618286-0.2145271-0.1342239-0.2875519-0.2203293c-0.072464-0.0822601-0.1106567-0.188858-0.1106567-0.3158875
			c0-0.0986938,0.0232239-0.1940308,0.0662384-0.2804184c0.0444183-0.0847015,0.1065331-0.160881,0.1899071-0.225441
			c0.0826111-0.0658875,0.182354-0.1154099,0.3018951-0.1533203c0.1133842-0.0372162,0.2459335-0.0560303,0.3900261-0.0560303
			c0.1708107,0,0.3169327,0.0188141,0.4419975,0.0560303c0.1242981,0.0379105,0.2274704,0.0785522,0.3169327,0.1215668
			c0.0887604,0.0430908,0.1645851,0.083725,0.2274666,0.1205902c0.0587578,0.0355301,0.1161118,0.0542755,0.1639557,0.0542755
			c0.0805817,0,0.142765-0.0351791,0.1830559-0.108902L48.1891174,68.3125534z M42.3706856,68.0513
			c-0.0144081-0.0816269-0.037632-0.1475906-0.0765228-0.1813736c-0.0328064-0.035881-0.0997429-0.0560303-0.1940346-0.0560303
			h-0.4958572v4.9318466h0.8709183v-3.1158752c0.062809-0.1673813,0.1317787-0.3155975,0.206974-0.4487762
			c0.0778503-0.130455,0.1652832-0.2407608,0.2595749-0.3295975c0.0963173-0.0915604,0.2028465-0.1587753,0.3265114-0.2045898
			c0.1228981-0.0467987,0.2616043-0.0669403,0.4166756-0.0669403c0.1085587,0,0.2076073,0.0102768,0.2957382,0.0300751
			c0.0867348,0.0181198,0.1536751,0.0293808,0.200119,0.0293808c0.0758247,0,0.1256981-0.0393143,0.1475906-0.1240234
			l0.0607834-0.6454697c-0.0737953-0.0498734-0.1591301-0.0854034-0.2554474-0.1068802
			c-0.0963173-0.025322-0.1953621-0.0369339-0.2998657-0.0369339c-0.3265114,0-0.6032257,0.0966721-0.8320236,0.2841949
			c-0.2288666,0.1919403-0.4194031,0.4552917-0.5730782,0.7954407L42.3706856,68.0513z M36.793293,68.789032
			c0.0300789,0.0460968,0.065609,0.0826111,0.1086273,0.1154175c0.0402908,0.0293732,0.0915604,0.0457458,0.1482201,0.0457458
			c0.0758209,0,0.1509476-0.0276337,0.2274666-0.0798798c0.0751266-0.0574265,0.1639595-0.1117096,0.2711868-0.1813736
			c0.1086273-0.0659637,0.230896-0.1267471,0.3777161-0.1796265c0.1421318-0.0536499,0.3237877-0.0802994,0.5376167-0.0802994
			c0.3156013,0,0.5608368,0.0990448,0.7261238,0.2958069c0.1645851,0.1959915,0.2485924,0.4842453,0.2485924,0.8657379v0.3846436
			c-0.5648956,0.0153122-1.0348015,0.064209-1.4249001,0.1557007c-0.3851967,0.088829-0.6980743,0.2042465-0.937851,0.3466568
			c-0.2411118,0.1352768-0.41325,0.2947617-0.5218773,0.4764862c-0.1065331,0.1789246-0.1618614,0.3650513-0.1618614,0.5611115
			c0,0.2261429,0.0355339,0.4187088,0.1106567,0.5833664c0.0709991,0.1625519,0.1714439,0.2991638,0.2964401,0.4061127
			c0.1256943,0.1061783,0.272583,0.1898346,0.4412956,0.2411041c0.1659851,0.0533066,0.3483391,0.0836639,0.5416718,0.0836639
			c0.1864815,0,0.3579216-0.0208511,0.5122948-0.0563126c0.1550751-0.0328064,0.2998657-0.0786209,0.4385719-0.1417847
			c0.1338768-0.0658875,0.2629318-0.1444397,0.3865967-0.2336197c0.1229706-0.0935898,0.2499924-0.200119,0.3791161-0.3220367
			l0.0997467,0.4668961c0.0252495,0.0836563,0.0607834,0.1366043,0.1051979,0.1625595
			c0.0491753,0.027977,0.1119881,0.0406342,0.1973915,0.0406342h0.3831711v-3.1551819
			c0-0.2725143-0.0341339-0.5273361-0.1133842-0.7595596c-0.0730934-0.230896-0.1850777-0.4235306-0.3305702-0.5870667
			c-0.1434631-0.1622772-0.3272133-0.2893066-0.5416718-0.3781357c-0.2111015-0.0911407-0.4590645-0.1396866-0.7329788-0.1396866
			c-0.3845711,0-0.7329788,0.0659637-1.0492096,0.1943817c-0.3156013,0.130806-0.6072845,0.3267975-0.8797989,0.5888214
			L36.793293,68.789032z M39.4388428,71.547966c-0.0983467,0.1041565-0.1980934,0.1977463-0.3011932,0.2790222
			c-0.1017723,0.0840073-0.208374,0.1499634-0.3230858,0.2107544c-0.1086311,0.0580521-0.2295685,0.1017685-0.3551941,0.1345749
			c-0.1270943,0.0303574-0.2678299,0.0481262-0.4173775,0.0481262c-0.1140823,0-0.224041-0.0150375-0.3210564-0.0457458
			c-0.0983467-0.0280533-0.1851501-0.0710678-0.2581749-0.1322021c-0.0737953-0.0580597-0.1318512-0.1315002-0.1748695-0.230545
			c-0.0409889-0.0911407-0.0614853-0.2032013-0.0614853-0.3347015c0-0.1349258,0.0409889-0.2605515,0.1208687-0.3698807
			c0.0772247-0.1126862,0.2049484-0.2066269,0.385273-0.2875519c0.1741676-0.0812836,0.4077911-0.1475906,0.6851311-0.197113
			c0.2800713-0.050499,0.6181984-0.080925,1.0211639-0.0935898V71.547966z M35.3800049,71.7413025
			c-0.0375595-0.0563812-0.0935898-0.083725-0.1639557-0.083725c-0.0566559,0-0.1222687,0.0222397-0.198719,0.0730896
			c-0.0758247,0.0509262-0.1708107,0.1069489-0.2834969,0.1650085c-0.1120567,0.058403-0.2520905,0.1140137-0.4091911,0.1649399
			c-0.1550751,0.0478439-0.3449135,0.0737915-0.5628662,0.0737915c-0.2308273,0-0.4439583-0.0386124-0.6291084-0.1144333
			c-0.1926346-0.0761719-0.3524666-0.1929855-0.4917984-0.3453293c-0.1352806-0.1543732-0.2383804-0.34729-0.3169327-0.5772095
			c-0.0765228-0.2298431-0.1168137-0.5034103-0.1270943-0.8141861h3.2965508c0.0806465,0,0.1352768-0.0218964,0.1653519-0.0672913
			c0.0300102-0.0457458,0.0437202-0.1373062,0.0437202-0.2739105c0-0.3514862-0.0505714-0.6646423-0.1544456-0.9358292
			c-0.1051292-0.2753067-0.2485924-0.5048065-0.4316444-0.6912842c-0.1844521-0.1864853-0.4037361-0.3281937-0.6530304-0.4275894
			c-0.2520905-0.1004486-0.5267029-0.1496201-0.8204117-0.1496201c-0.3586197,0-0.6796761,0.0598068-0.9665337,0.1902542
			c-0.2848244,0.1181412-0.5280304,0.2927322-0.7226944,0.5126495c-0.1980915,0.2178802-0.3524647,0.4792099-0.4569664,0.7773209
			c-0.1045704,0.2978363-0.1578007,0.6202927-0.1578007,0.9638748c0,0.4259109,0.0587559,0.8025818,0.1748676,1.1297913
			c0.1174412,0.3281937,0.2793694,0.6017609,0.4911003,0.8227921c0.2104034,0.2229919,0.4556389,0.3927536,0.7438889,0.5095673
			c0.2862282,0.1144333,0.6011314,0.1728363,0.9419823,0.1728363c0.1803246,0,0.3592491-0.0157394,0.5409737-0.0458145
			c0.1817245-0.033432,0.3565903-0.0765228,0.5266342-0.1396866c0.1735382-0.0607834,0.3320389-0.139679,0.479557-0.2336197
			c0.1502495-0.0986938,0.2793732-0.2076035,0.385273-0.341835L35.3800049,71.7413025z M32.2241898,69.7415771
			c0.0573578-0.4273071,0.2097054-0.7620087,0.4522095-1.0045166c0.2411118-0.2407532,0.568325-0.3650513,0.9856987-0.3650513
			c0.1959953,0,0.3756866,0.039238,0.5306931,0.1014252c0.1571693,0.069664,0.2869225,0.1622086,0.3955498,0.2851715
			c0.1106567,0.1205902,0.1926346,0.2639847,0.2492943,0.4326935c0.0553284,0.1660538,0.0854034,0.3525391,0.0854034,0.5502777
			H32.2241898z M31.9925957,65.7694778h-0.8353825c-0.0812778,0-0.1475182,0.0228729-0.1973915,0.069664
			c-0.0519009,0.0443497-0.0915604,0.0952682-0.1229668,0.1495514l-1.5922813,2.7131882
			c-0.0553284,0.1110077-0.1038017,0.2189331-0.1516457,0.3179779c-0.0464458,0.1014938-0.0847073,0.2005386-0.1195412,0.2981873
			c-0.0388908-0.0976486-0.0785503-0.1966934-0.1277237-0.2981873c-0.0484734-0.0990448-0.1038017-0.2069702-0.1612282-0.3179779
			l-1.5956402-2.7131882c-0.035532-0.0631638-0.0765209-0.119194-0.1270237-0.158432
			c-0.0478439-0.0402908-0.1154823-0.0607834-0.2001896-0.0607834h-0.8299255l2.558815,4.1992188v2.7770462h0.9440098v-2.7770462
			L31.9925957,65.7694778z M22.482132,70.5988541c-0.0888329,0.3626785-0.2063446,0.6547089-0.3593197,0.8715439
			c-0.1503162,0.22509-0.3251858,0.3798141-0.5232754,0.4757767c-0.1980915,0.0963211-0.4029675,0.1448669-0.6181259,0.1448669
			c-0.2165565,0-0.4215031-0.0485458-0.6168652-0.1448669c-0.200819-0.0959625-0.3736591-0.2506866-0.5225773-0.4757767
			c-0.1495476-0.216835-0.2697868-0.5088654-0.3606491-0.8715439c-0.0881329-0.3600235-0.1304512-0.8026505-0.1304512-1.335434
			c0-0.533844,0.0423183-0.981575,0.1304512-1.342926c0.0908623-0.3623962,0.2111015-0.6530228,0.3606491-0.8737106
			c0.1489182-0.2220078,0.3217583-0.3804398,0.5225773-0.4771118c0.1953621-0.0963135,0.4003086-0.1420593,0.6168652-0.1420593
			c0.2151585,0,0.4200344,0.0457458,0.6181259,0.1420593c0.1980896,0.0966721,0.3729591,0.2551041,0.5232754,0.4771118
			c0.1529751,0.2206879,0.2704868,0.5113144,0.3593197,0.8737106c0.0914917,0.361351,0.1345081,0.809082,0.1345081,1.342926
			C22.6166401,69.7962036,22.5736237,70.2388306,22.482132,70.5988541 M23.32164,67.6731644
			c-0.1318512-0.4491348-0.3149033-0.8179626-0.5403423-1.1123734c-0.225441-0.295105-0.4959278-0.5106125-0.8060036-0.6554108
			c-0.3067188-0.1410828-0.639389-0.2158508-0.9938831-0.2158508c-0.3552628,0-0.6899605,0.0747681-0.9959793,0.2158508
			c-0.3087482,0.1447983-0.5730801,0.3603058-0.8019466,0.6554108c-0.2260704,0.2944107-0.4043655,0.6632385-0.5362167,1.1123734
			c-0.1290531,0.4477997-0.193964,0.9789124-0.193964,1.5902557c0,0.6089554,0.0649109,1.1366425,0.193964,1.5840225
			c0.1318512,0.4453583,0.3101463,0.8146057,0.5362167,1.106636c0.2288666,0.2940598,0.4931984,0.5095673,0.8019466,0.6519852
			c0.3060188,0.139679,0.6407166,0.2151566,0.9959793,0.2151566c0.3544941,0,0.6871643-0.0754776,0.9938831-0.2151566
			c0.3100758-0.1424179,0.5805626-0.3579254,0.8060036-0.6519852c0.2254391-0.2920303,0.4084911-0.6612778,0.5403423-1.106636
			c0.1317806-0.4473801,0.195364-0.9750671,0.195364-1.5840225C23.517004,68.6520767,23.4534206,68.1209641,23.32164,67.6731644
			 M16.8343716,70.5988541c-0.0874329,0.3626785-0.2090015,0.6547089-0.3613472,0.8715439
			c-0.1495476,0.22509-0.3244171,0.3798141-0.5197792,0.4757767c-0.2022181,0.0963211-0.4057646,0.1448669-0.6229515,0.1448669
			c-0.213829,0-0.4180756-0.0485458-0.6148367-0.1448669c-0.20012-0.0959625-0.3729601-0.2506866-0.5246058-0.4757767
			c-0.1475191-0.216835-0.2663593-0.5088654-0.3565216-0.8715439c-0.0901623-0.3600235-0.1332493-0.8026505-0.1332493-1.335434
			c0-0.533844,0.043087-0.981575,0.1332493-1.342926c0.0901623-0.3623962,0.2090025-0.6530228,0.3565216-0.8737106
			c0.1516457-0.2220078,0.3244858-0.3804398,0.5246058-0.4771118c0.1967611-0.0963135,0.4010077-0.1420593,0.6148367-0.1420593
			c0.2171869,0,0.4207335,0.0457458,0.6229515,0.1420593c0.1953621,0.0966721,0.3702316,0.2551041,0.5197792,0.4771118
			c0.1523457,0.2206879,0.2739143,0.5113144,0.3613472,0.8737106c0.0901623,0.361351,0.1332512,0.809082,0.1332512,1.342926
			C16.9676228,69.7962036,16.9245338,70.2388306,16.8343716,70.5988541 M17.6705227,67.6731644
			c-0.1305218-0.4491348-0.3088169-0.8179626-0.5369148-1.1123734c-0.226141-0.295105-0.4979553-0.5106125-0.8053741-0.6554108
			c-0.3101482-0.1410828-0.6434469-0.2158508-0.9979401-0.2158508c-0.3558922,0-0.6885614,0.0747681-0.9925528,0.2158508
			c-0.3094473,0.1447983-0.5765066,0.3603058-0.8012476,0.6554108c-0.2288675,0.2944107-0.4057646,0.6632385-0.5376148,1.1123734
			c-0.1284237,0.4477997-0.193964,0.9789124-0.193964,1.5902557c0,0.6089554,0.0655403,1.1366425,0.193964,1.5840225
			c0.1318502,0.4453583,0.3087473,0.8146057,0.5376148,1.106636c0.224741,0.2940598,0.4918003,0.5095673,0.8012476,0.6519852
			c0.3039913,0.139679,0.6366606,0.2151566,0.9925528,0.2151566c0.3544931,0,0.6877918-0.0754776,0.9979401-0.2151566
			c0.3074188-0.1424179,0.5792332-0.3579254,0.8053741-0.6519852c0.2280979-0.2920303,0.4063931-0.6612778,0.5369148-1.106636
			c0.1324806-0.4473801,0.1966915-0.9750671,0.1966915-1.5840225
			C17.8672142,68.6520767,17.8030033,68.1209641,17.6705227,67.6731644 M10.4469185,72.0858612v-6.3314209H9.7392616
			l-2.0772271,1.7982025l0.2711859,0.3753357c0.0190954,0.0218277,0.0409188,0.0430222,0.0709968,0.0611343
			c0.0328054,0.0205002,0.0662394,0.0314102,0.1031723,0.042038c0.0341339,0.0033646,0.0716953,0.0033646,0.1147137-0.0044708
			c0.0437164-0.0071335,0.0840769-0.0286789,0.1270943-0.0658951l1.2418451-1.0653
			C9.58076,67.0423813,9.574605,67.1847916,9.574605,67.3282547v4.7576065H8.081439v0.6598816h3.7377768v-0.6598816H10.4469185z"/>
	</g>
	<polygon id="XMLID_1_" fill="#FFFFFF" points="14.389782,15.1456327 84.4160461,0.1789953 85.0738297,0 85.7288895,0.1789953 
		155.0402832,15.1456327 153.7267456,21.3954277 85.0738297,6.5514097 15.7026234,21.3954277 	"/>
	<rect id="XMLID_2_" x="16.1777058" y="51.8553352" fill="#FFFFFF" width="137.8332367" height="6.5316148"/>
</g>
</svg>
